PathFileType	3	(X/Y/Z)	squats_2__view1_aligned.trc
DataRate	CameraRate	NumFrames	NumMarkers	Units	OrigDataRate	OrigDataStartFrame	OrigNumFrames
100.0	100.0	9	19	mm	100.0	532	1550
Frame#	Time	pelvis			neck			head			hip_left			hip_right			knee_left			knee_right			ankle_left			ankle_right			heel_left			heel_right			toe_left			toe_right			shoulder_left			shoulder_right			elbow_left			elbow_right			wrist_left			wrist_right			
		X1	Y1	Z1	X2	Y2	Z2	X3	Y3	Z3	X4	Y4	Z4	X5	Y5	Z5	X6	Y6	Z6	X7	Y7	Z7	X8	Y8	Z8	X9	Y9	Z9	X10	Y10	Z10	X11	Y11	Z11	X12	Y12	Z12	X13	Y13	Z13	X14	Y14	Z14	X15	Y15	Z15	X16	Y16	Z16	X17	Y17	Z17	X18	Y18	Z18	X19	Y19	Z19	
532	5.31000	79.765804	925.978546	-12.015539	93.299088	1486.769352	-163.377339	101.395973	1639.085688	-267.773930	3.582044	933.059964	-4.461157	155.949564	918.897127	-19.569921	-98.411457	521.731876	-39.335994	175.742345	502.505448	-88.858406	-134.007958	156.972374	112.497693	175.848604	131.188011	48.126393	-126.474633	115.109660	152.600872	173.029000	93.646422	92.636010	-195.616168	88.350124	-55.932916	182.238624	32.449454	-120.590390	-89.640525	1431.047824	-110.629008	275.757197	1414.165637	-142.919686	-211.165921	1170.703847	-75.718222	320.891645	1127.850321	-170.406039	-243.946806	979.324638	-246.920313	308.788691	962.514949	-367.894272
533	5.32000	77.878391	929.063160	-13.373190	92.894151	1491.159768	-160.637105	101.229221	1644.126814	-264.387187	1.807714	936.153722	-5.842496	153.949068	921.972597	-20.903885	-97.537893	523.200989	-35.347136	172.978517	503.782880	-83.494399	-135.048623	157.013874	113.628322	173.930226	131.015203	50.279651	-127.768763	114.963000	153.600470	171.192912	93.290911	94.607401	-195.933596	88.725526	-55.455871	180.261123	32.272888	-118.693089	-90.096012	1435.550852	-108.095792	275.158145	1418.096313	-140.336322	-211.451492	1175.086676	-72.953895	320.246730	1131.949991	-168.994406	-245.564490	983.634530	-244.078270	307.936222	967.926641	-367.737841
534	5.33000	75.990978	932.147774	-14.730842	92.489215	1495.550185	-157.896871	101.062470	1649.167940	-261.000443	0.033384	939.247480	-7.223834	151.948573	925.048068	-22.237849	-96.664330	524.670102	-31.358279	170.214688	505.060312	-78.130392	-136.089287	157.055375	114.758950	172.011848	130.842394	52.432909	-129.062892	114.816340	154.600069	169.356824	92.935400	96.578792	-196.251024	89.100927	-54.978826	178.283622	32.096322	-116.795788	-90.551499	1440.053880	-105.562575	274.559092	1422.026988	-137.752958	-211.737063	1179.469504	-70.189567	319.601815	1136.049660	-167.582773	-247.182174	987.944421	-241.236226	307.083754	973.338334	-367.581409
535	5.34000	74.103566	935.232388	-16.088493	92.084278	1499.940602	-155.156636	100.895719	1654.209066	-257.613699	-1.740946	942.341238	-8.605173	149.948077	928.123538	-23.571813	-95.790766	526.139215	-27.369421	167.450859	506.337745	-72.766384	-137.129952	157.096875	115.889579	170.093470	130.669586	54.586167	-130.357021	114.669680	155.599668	167.520736	92.579889	98.550183	-196.568453	89.476329	-54.501781	176.306121	31.919757	-114.898487	-91.006985	1444.556909	-103.029358	273.960039	1425.957664	-135.169595	-212.022634	1183.852333	-67.425240	318.956900	1140.149330	-166.171139	-248.799858	992.254313	-238.394183	306.231285	978.750027	-367.424978
536	5.35000	71.680558	936.594779	-16.295474	90.654826	1502.155636	-151.679693	99.659634	1656.821920	-253.681124	-4.118393	943.672142	-8.815768	147.479525	929.517415	-23.775196	-96.792995	526.834507	-23.716038	164.781436	506.979606	-68.208020	-138.717387	157.083300	117.793897	167.962530	130.495134	57.006877	-132.062534	114.565648	157.416613	165.430678	92.265454	100.841305	-197.526597	89.614305	-53.019821	174.106308	31.856157	-112.709709	-92.429948	1446.927709	-99.802326	272.396724	1427.901768	-131.804285	-213.288915	1185.930206	-64.330518	317.379863	1142.100144	-163.497991	-250.746102	994.368261	-235.648158	303.272964	981.515112	-365.541613
537	5.36000	69.257549	937.957171	-16.502454	89.225375	1504.370669	-148.202749	98.423550	1659.434773	-249.748550	-6.495840	945.003047	-9.026362	145.010973	930.911293	-23.978579	-97.795224	527.529799	-20.062654	162.112013	507.621468	-63.649655	-140.304823	157.069725	119.698214	165.831590	130.320681	59.427586	-133.768047	114.461616	159.233559	163.340620	91.951019	103.132427	-198.484742	89.752280	-51.537860	171.906495	31.792556	-110.520930	-93.852910	1449.298509	-96.575294	270.833409	1429.845872	-128.438976	-214.555195	1188.008078	-61.235797	315.802826	1144.050958	-160.824842	-252.692346	996.482208	-232.902133	300.314644	984.280198	-363.658249
538	5.37000	66.834541	939.319562	-16.709435	87.795923	1506.585703	-144.725806	97.187465	1662.047627	-245.815975	-8.873287	946.333951	-9.236957	142.542421	932.305170	-24.181962	-98.797453	528.225090	-16.409270	159.442591	508.263330	-59.091291	-141.892258	157.056150	121.602531	163.700650	130.146228	61.848295	-135.473560	114.357583	161.050505	161.250562	91.636584	105.423549	-199.442887	89.890256	-50.055899	169.706681	31.728956	-108.332151	-95.275873	1451.669309	-93.348262	269.270093	1431.789976	-125.073667	-215.821476	1190.085951	-58.141076	314.225789	1146.001772	-158.151694	-254.638591	998.596156	-230.156108	297.356324	987.045284	-361.774884
539	5.38000	64.411533	940.681954	-16.916415	86.366472	1508.800737	-141.248862	95.951381	1664.660480	-241.883400	-11.250734	947.664856	-9.447551	140.073869	933.699048	-24.385346	-99.799682	528.920382	-12.755886	156.773168	508.905192	-54.532926	-143.479694	157.042575	123.506849	161.569710	129.971776	64.269004	-137.179073	114.253551	162.867450	159.160503	91.322149	107.714671	-200.401031	90.028231	-48.573938	167.506868	31.665356	-106.143372	-96.698836	1454.040109	-90.121230	267.706778	1433.734080	-121.708358	-217.087756	1192.163824	-55.046354	312.648753	1147.952586	-155.478545	-256.584835	1000.710103	-227.410083	294.398003	989.810369	-359.891520
540	5.39000	61.988525	942.044345	-17.123396	84.937020	1511.015770	-137.771919	94.715296	1667.273333	-237.950825	-13.628182	948.995761	-9.658146	137.605317	935.092926	-24.588729	-100.801911	529.615674	-9.102503	154.103745	509.547053	-49.974562	-145.067130	157.028999	125.411166	159.438771	129.797323	66.689713	-138.884586	114.149519	164.684396	157.070445	91.007714	110.005792	-201.359176	90.166207	-47.091977	165.307055	31.601756	-103.954593	-98.121798	1456.410910	-86.894198	266.143463	1435.678184	-118.343049	-218.354037	1194.241697	-51.951633	311.071716	1149.903400	-152.805396	-258.531079	1002.824051	-224.664058	291.439683	992.575455	-358.008155
